# xmcd CD database file
#
# Track frame offsets:
#	150
#	18150
#	40601
#	52653
#	66247
#	88274
#	103906
#	117314
#	135665
#	150085
#	169370
#	188352
#
# Disc length: 2770 seconds
#
# Revision: 0
# Processed by: cddbd v1.5PL3 Copyright (c) Steve Scherf et al.
# Submitted via: CDex 1.60beta1
#
DISCID=8e0ad00c
DTITLE=Dixieland Kings - The Best Of Dixieland [CD2]
DYEAR=1900
DGENRE=Jazz
TTITLE0=Alexander's Ragtime Band
TTITLE1=Do You Know What It Means To Miss New Orleans
TTITLE2=Avalon
TTITLE3=New Orleans
TTITLE4=Darktown Strutters Ball
TTITLE5=Limehouse Blues
TTITLE6=Poor Butterfly
TTITLE7=Sweet Georga Brown
TTITLE8=Oh You Beautiful Doll
TTITLE9=Basin Street Blues
TTITLE10=Struttin' Witn Some Barbecue
TTITLE11=After You've Gone
EXTD=
EXTT0=
EXTT1=
EXTT2=
EXTT3=
EXTT4=
EXTT5=
EXTT6=
EXTT7=
EXTT8=
EXTT9=
EXTT10=
EXTT11=
PLAYORDER=
